<svg width="32" height="32" viewBox="0 0 32 32" fill="none" xmlns="http://www.w3.org/2000/svg">
<mask id="mask0_44_30" style="mask-type:luminance" maskUnits="userSpaceOnUse" x="0" y="0" width="32" height="32">
<path d="M32 0H0V32H32V0Z" fill="white"/>
</mask>
<g mask="url(#mask0_44_30)">
<path d="M3.13229 14.0325C3.00232 13.5476 3.0023 13.037 3.13223 12.5521C3.26217 12.0672 3.51747 11.625 3.87248 11.27L11.27 3.87246C11.625 3.51745 12.0672 3.26215 12.5521 3.13222C13.037 3.00229 13.5476 3.00231 14.0325 3.13227L20.9548 4.98709C21.0269 4.03876 21.357 3.12821 21.9096 2.35407L13.5722 0.120308C12.9738 -0.0400246 12.3437 -0.0400213 11.7453 0.120318C11.1468 0.280659 10.6011 0.595687 10.163 1.03374L1.03392 10.1629C0.595867 10.601 0.280841 11.1466 0.120502 11.7451C-0.0398382 12.3435 -0.0398416 12.9736 0.120491 13.572L2.44018 22.2291C3.19849 21.65 4.10132 21.2904 5.05011 21.1895L3.13229 14.0325Z" fill="#0015D7"/>
<path d="M26.8866 10.5713L28.8685 17.9675C28.9985 18.4525 28.9984 18.963 28.8685 19.4478C28.7385 19.9329 28.4831 20.375 28.1281 20.73L20.7306 28.1277C20.3756 28.4827 19.9335 28.7379 19.4485 28.8679C18.9636 28.9977 18.4529 28.9977 17.9681 28.8679L10.8111 26.9501C10.7103 27.8989 10.3507 28.8018 9.77148 29.56L18.4286 31.8797C19.027 32.0401 19.6571 32.0401 20.2555 31.8797C20.854 31.7193 21.3996 31.4044 21.8378 30.9663L30.9669 21.8371C31.405 21.399 31.7199 20.8534 31.8803 20.2549C32.0407 19.6565 32.0407 19.0264 31.8803 18.428L29.4731 9.44678C28.7309 10.0526 27.8358 10.4418 26.8866 10.5713Z" fill="#0015D7"/>
<path d="M2.64831 23.4231C2.06201 24.0093 1.66273 24.7564 1.50097 25.5695C1.33921 26.3828 1.42222 27.2257 1.73953 27.9918C2.05682 28.7577 2.59415 29.4125 3.28354 29.8732C3.97296 30.3337 4.78347 30.5797 5.61262 30.5797C6.44176 30.5797 7.25229 30.3337 7.94169 29.8732C8.6311 29.4125 9.16843 28.7577 9.48572 27.9918C9.80303 27.2257 9.88604 26.3828 9.72427 25.5695C9.56252 24.7564 9.16324 24.0093 8.57694 23.4231C7.79014 22.6381 6.72407 22.1972 5.61262 22.1972C4.50118 22.1972 3.43511 22.6381 2.64831 23.4231Z" fill="#0015D7"/>
<path d="M23.2064 2.43198C22.6201 3.01826 22.2207 3.76524 22.0591 4.57846C21.8973 5.39166 21.9803 6.23458 22.2976 7.00062C22.6149 7.76664 23.1522 8.42139 23.8415 8.88202C24.531 9.34268 25.3415 9.58856 26.1706 9.58856C26.9998 9.58856 27.8103 9.34268 28.4998 8.88202C29.1892 8.42139 29.7264 7.76664 30.0437 7.00062C30.3611 6.23458 30.444 5.39166 30.2823 4.57846C30.1206 3.76524 29.7212 3.01826 29.135 2.43198C28.3483 1.64695 27.2821 1.20607 26.1706 1.20607C25.0593 1.20607 23.9931 1.64695 23.2064 2.43198Z" fill="#0015D7"/>
<path d="M18.461 27.1126C18.2926 27.1126 18.1251 27.0905 17.9625 27.0469L11.4112 25.2914C11.1927 24.1249 10.6268 23.0516 9.7876 22.2124C8.9484 21.3733 7.87514 20.8072 6.70861 20.5889L4.95327 14.0381C4.86624 13.7113 4.86649 13.3675 4.95401 13.0408C5.04154 12.7142 5.21325 12.4163 5.45199 12.1768L12.1762 5.45246C12.4154 5.21326 12.7133 5.04124 13.0401 4.95369C13.3668 4.86614 13.7109 4.86616 14.0376 4.95374L20.4052 6.65996C20.6578 7.81926 21.2546 8.87525 22.1175 9.68961C22.9805 10.504 24.0692 11.0387 25.2411 11.2238L27.0465 17.9629C27.1334 18.2898 27.1333 18.6337 27.0456 18.9602C26.9581 19.2869 26.7864 19.5848 26.5476 19.8244L19.8234 26.5486C19.6449 26.7279 19.4324 26.8702 19.1986 26.9669C18.9648 27.0638 18.7141 27.1132 18.461 27.1126Z" fill="#3347FF"/>
</g>
</svg>
